<?xml version="1.0" encoding="utf-8"?>
<!-- Generator: Adobe Illustrator 25.2.1, SVG Export Plug-In . SVG Version: 6.00 Build 0)  -->
<svg version="1.1" id="Layer_1" xmlns="http://www.w3.org/2000/svg" xmlns:xlink="http://www.w3.org/1999/xlink" x="0px" y="0px"
	 viewBox="0 0 237 66" style="enable-background:new 0 0 237 66;" xml:space="preserve">
<style type="text/css">
	.st0{fill:#34568D;stroke:#34568D;stroke-width:2.3775;stroke-linecap:round;stroke-linejoin:round;stroke-miterlimit:10;}
	.st1{fill:#34568D;stroke:#34568D;stroke-width:3.0089;stroke-linecap:round;stroke-linejoin:round;stroke-miterlimit:10;}
	.st2{fill:#34568D;stroke:#34568D;stroke-width:2.7899;stroke-linecap:round;stroke-linejoin:round;stroke-miterlimit:10;}
	.st3{fill:none;stroke:#34568D;stroke-width:2;stroke-miterlimit:10;}
	.st4{fill:#34568D;stroke:#34568D;stroke-width:3;stroke-linecap:round;stroke-linejoin:round;stroke-miterlimit:10;}
	.st5{fill:#34568D;stroke:#34568D;stroke-width:3;stroke-linecap:round;stroke-linejoin:bevel;stroke-miterlimit:10;}
	.st6{fill:#525352;stroke:#525352;stroke-width:2;stroke-linecap:round;stroke-linejoin:bevel;stroke-miterlimit:10;}
	.st7{fill:#525352;stroke:#525352;stroke-width:2;stroke-linecap:round;stroke-linejoin:round;stroke-miterlimit:10;}
	.st8{fill:#525352;stroke:#525352;stroke-width:2.2479;stroke-linecap:round;stroke-linejoin:bevel;stroke-miterlimit:10;}
	.st9{fill:none;stroke:#525352;stroke-width:2;stroke-linecap:round;stroke-linejoin:bevel;stroke-miterlimit:10;}
	.st10{fill:#525452;}
	.st11{font-family:'ArialMT';}
	.st12{font-size:52.3392px;}
	.st13{fill:none;stroke:#525352;stroke-miterlimit:10;}
</style>
<path class="st0" d="M2.79,31.43c2.11-7.55,4.22-15.1,6.33-22.65"/>
<path class="st1" d="M9.86,8.78c7.84-2.2,15.68-4.41,23.52-6.61"/>
<path class="st2" d="M34.12,2.39c5.19,4.98,10.37,9.97,15.55,14.95"/>
<path class="st3" d="M51.22,18.58c-1.84,1.74-1.35,5.05,0.64,6.43c1.29,0.89,3.19,0.95,4.5,0c1.94-1.4,2.21-4.72,0.32-6.43
	C55.18,17.23,52.68,17.2,51.22,18.58z"/>
<path class="st4" d="M60.25,30.59c-2.08,9.3-4.15,18.59-6.23,27.88"/>
<path class="st4" d="M54.02,58.5c-8.89,1.93-17.79,3.86-26.68,5.79"/>
<path class="st4" d="M27.34,64.29c-5.36-5.57-10.71-11.14-16.07-16.71"/>
<path class="st3" d="M10.52,47.57c1.84-1.74,1.35-5.05-0.64-6.43c-1.29-0.89-3.19-0.95-4.5,0c-1.94,1.4-2.21,4.72-0.32,6.43
	C6.55,48.93,9.06,48.96,10.52,47.57z"/>
<path class="st4" d="M16.2,11.46c1.71,7.29,3.43,14.57,5.14,21.86"/>
<path class="st4" d="M21.99,9.86c3.21,12.21,6.43,24.43,9.64,36.64"/>
<path class="st4" d="M31.63,16.29c3.11,12.32,6.21,24.64,9.32,36.96"/>
<path class="st5" d="M41.95,31.18c1.93,7.61,3.86,15.21,5.79,22.82"/>
<path class="st6" d="M88.88,11.5c-0.01,13.58-0.02,28.17-0.04,41.75"/>
<path class="st7" d="M89.6,11.42c0.74,1.27,1.49,2.54,2.23,3.81"/>
<path class="st6" d="M93.84,17.58c0.88,1.81,2.47,5.09,6.58,13.59"/>
<path class="st8" d="M112.99,11.82c-3.98,6.54-7.95,13.07-11.93,19.61"/>
<path class="st6" d="M112.99,11.82c-0.33,13.6-0.67,27.19-1,40.79"/>
<path class="st9" d="M120.56,12c1.21-0.32,5.03-1.18,9.21,0.64c1.07,0.46,3.75,1.79,5.79,4.71c1.17,1.68,1.64,3.19,2.04,4.5
	c0.48,1.58,1.47,5.04,0.54,9.32c-0.34,1.55-0.96,4.37-3.32,6.86c-0.34,0.35-1.88,1.93-4.39,3c-1.27,0.54-2.3,0.75-3.43,0.96
	c0,0-1.27,0.24-5.65,0.43c-0.01,0-0.02,0-0.03,0c-0.26,0.05-0.14,1.74-0.11,2.14c0.08,1.19,0.14,3.69,0.11,9.11"/>
<path class="st9" d="M147.56,27.75c0.07-5.25,0.14-10.5,0.21-15.75c1.71-0.3,4.35-0.49,7.29,0.43c1.98,0.62,3.31,1.49,3.64,1.71
	c0.72,0.49,2.97,2.1,4.5,5.14c0.79,1.57,1.06,2.88,1.29,3.96c0.4,1.98,1.05,5.17,0,8.79c-1.72,5.91-6.72,8.7-7.07,8.89
	c-4.7,2.53-9.25,1.56-10.39,1.29"/>
<path class="st9" d="M157.41,40.93c2.32,4.21,4.64,8.43,6.96,12.64"/>
<path class="st9" d="M187.09,11.68c-4.43-0.04-8.86-0.07-13.29-0.11c0,8.57,0,17.14,0,25.71"/>
<path class="st9" d="M176.16,40.5c-0.89,0-1.79,0-2.68,0c0.04,4.39,0.07,8.79,0.11,13.18c4.64-0.07,9.29-0.14,13.93-0.21"/>
<path class="st9" d="M209.62,14.36c-0.22-0.27-2.69-3.14-6.5-2.79c-4.39,0.41-6.19,4.71-6.28,4.93c-1.46,3.63,0.46,7.01,0.85,7.71
	c0.58,1.03,1.81,2.22,4.26,4.61c1.85,1.8,1.83,1.62,3.19,3c1.28,1.3,2.31,2.58,4.37,5.14c1.43,1.78,1.91,2.46,2.13,3.54
	c0.17,0.82,0.07,1.3,0,2.89c-0.04,1.02-0.07,2.45,0,4.18"/>
<path class="st9" d="M210.56,50.04c-0.4,0.62-1.42,2.04-3.32,2.89c-2.7,1.22-5.21,0.42-5.79,0.21"/>
<path class="st9" d="M234.29,14.94c-0.22-0.26-2.69-3.04-6.48-2.7c-4.38,0.4-6.18,4.56-6.27,4.77c-1.45,3.52,0.45,6.79,0.85,7.47
	c0.58,1,1.8,2.15,4.25,4.46c1.85,1.74,1.83,1.57,3.19,2.9c1.28,1.26,2.31,2.5,4.36,4.98c1.43,1.72,1.9,2.38,2.12,3.42
	c0.17,0.8,0.07,1.26,0,2.8c-0.04,0.99-0.07,2.37,0,4.04"/>
<path class="st9" d="M235.11,50.46c-0.4,0.62-1.42,2.04-3.32,2.89c-2.7,1.22-5.21,0.42-5.79,0.21"/>
<text transform="matrix(0.3917 0 0 1 76.6608 48.6033)" class="st10 st11 st12">!</text>
<text transform="matrix(0.3917 0 0 1 76.6608 48.6033)" class="st13 st11 st12">!</text>
</svg>
